<?xml version="1.0" standalone="no"?>
<!DOCTYPE svg PUBLIC "-//W3C//DTD SVG 20010904//EN"
 "http://www.w3.org/TR/2001/REC-SVG-20010904/DTD/svg10.dtd">
<svg version="1.0" xmlns="http://www.w3.org/2000/svg"
 width="512.000000pt" height="512.000000pt" viewBox="0 0 512.000000 512.000000"
 preserveAspectRatio="xMidYMid meet">
<metadata>
Created by potrace 1.14, written by Peter Selinger 2001-2017
</metadata>
<g transform="translate(0.000000,512.000000) scale(0.100000,-0.100000)"
fill="#000000" stroke="none">
<path d="M468 4574 c-68 -22 -68 -24 -68 -467 0 -428 1 -440 53 -469 17 -10
464 -12 2097 -13 1261 -1 2086 3 2103 8 16 5 37 24 48 41 18 29 19 55 19 429
0 428 -1 440 -53 469 -30 17 -4150 19 -4199 2z"/>
<path d="M1991 3192 c-17 -7 -40 -27 -51 -45 -20 -31 -20 -47 -18 -355 l3
-324 33 -29 c18 -16 40 -30 50 -30 9 -1 259 -2 555 -3 598 -1 586 -2 619 64
16 31 18 70 18 338 0 335 -2 347 -63 379 -29 15 -81 17 -574 18 -416 0 -548
-3 -572 -13z"/>
<path d="M555 3191 c-11 -5 -31 -21 -45 -36 l-25 -27 0 -329 0 -329 33 -32 32
-33 570 0 570 0 32 33 33 32 0 330 0 330 -33 32 -32 33 -558 2 c-306 1 -566
-2 -577 -6z"/>
<path d="M3435 3190 c-11 -4 -31 -20 -45 -35 l-25 -27 0 -329 0 -329 33 -32
32 -33 557 -3 c593 -3 590 -3 628 47 19 24 20 45 23 339 2 271 1 317 -13 346
-32 67 -22 66 -627 65 -298 0 -552 -4 -563 -9z"/>
<path d="M2033 2243 c-5 0 -20 -4 -35 -7 -16 -4 -38 -21 -53 -43 l-25 -38 0
-310 c0 -289 1 -312 20 -342 10 -17 29 -37 42 -44 29 -17 1092 -20 1141 -4 17
5 42 25 54 44 23 34 23 38 23 343 0 342 -2 352 -63 385 -29 15 -81 17 -564 18
-293 0 -536 -1 -540 -2z"/>
<path d="M555 2231 c-11 -5 -31 -21 -45 -36 l-25 -27 0 -329 0 -329 33 -32 32
-33 568 0 c551 0 568 1 594 20 46 33 49 65 46 397 l-3 308 -33 32 -32 33 -558
2 c-306 1 -566 -2 -577 -6z"/>
<path d="M3435 2230 c-11 -4 -31 -20 -45 -35 l-25 -27 0 -329 0 -329 33 -32
32 -33 570 0 570 0 32 33 33 32 3 315 c2 274 1 320 -13 349 -32 67 -22 66
-627 65 -298 0 -552 -4 -563 -9z"/>
<path d="M1991 1272 c-17 -7 -40 -27 -51 -45 -20 -31 -20 -47 -18 -355 l3
-324 33 -29 c18 -16 40 -30 50 -30 9 -1 259 -2 555 -3 598 -1 586 -2 619 64
16 31 18 69 18 333 0 325 -3 347 -56 382 -28 18 -54 19 -576 20 -419 0 -553
-3 -577 -13z"/>
<path d="M555 1271 c-11 -5 -31 -21 -45 -36 l-25 -27 0 -329 0 -329 33 -32 32
-33 548 -3 c366 -2 559 0 582 8 19 5 44 23 55 38 19 26 20 43 20 354 l0 328
-33 32 -32 33 -558 2 c-306 1 -566 -2 -577 -6z"/>
<path d="M3435 1270 c-35 -14 -64 -49 -70 -82 -3 -18 -5 -169 -3 -335 l3 -303
33 -32 32 -33 557 -3 c593 -3 590 -3 628 47 19 24 20 45 23 339 2 271 1 317
-13 346 -32 67 -22 66 -627 65 -298 0 -552 -4 -563 -9z"/>
</g>
</svg>
